<svg xmlns="http://www.w3.org/2000/svg" width="32" height="32" viewBox="0 0 32 32" fill="none">
  <path fill-rule="evenodd" clip-rule="evenodd" d="M25.4668 25.5467C26.2534 24.3467 26.5468 23.7334 27.1468 22.3867C22.7201 20.7067 22.0134 14.4 26.3868 11.9867C25.0534 10.3067 23.1734 9.33337 21.4001 9.33337C20.1201 9.33337 19.2401 9.66672 18.4534 9.97339C17.7868 10.2267 17.1868 10.4534 16.4401 10.4534C15.6401 10.4534 14.9334 10.2001 14.1868 9.93339C13.3734 9.64006 12.5201 9.33337 11.4534 9.33337C9.46675 9.33337 7.34676 10.5467 6.00009 12.6267C4.10676 15.56 4.44009 21.0534 7.49343 25.7467C8.58676 27.4267 10.0534 29.3067 11.9601 29.3334C12.7601 29.3467 13.2801 29.1067 13.8534 28.8534C14.5068 28.5601 15.2134 28.24 16.4534 28.24C17.6934 28.2267 18.3868 28.5601 19.0401 28.8534C19.6001 29.1067 20.1068 29.3467 20.8934 29.3334C22.8268 29.3067 24.3734 27.2267 25.4668 25.5467Z" fill="#021727"/>
  <path fill-rule="evenodd" clip-rule="evenodd" d="M21.1206 2.66663C21.3339 4.13329 20.7339 5.58664 19.9472 6.59998C19.1072 7.69331 17.6406 8.54662 16.2272 8.49329C15.9739 7.07995 16.6272 5.62661 17.4272 4.65328C18.3206 3.58661 19.8272 2.75996 21.1206 2.66663Z" fill="#021727"/>
</svg>