<svg viewBox = "0 0 501.38 378.49" width="501.38" height="378.49" xmlns="http://www.w3.org/2000/svg"><g transform="matrix(1 0 0 1 250.69 189.25)"  ><g style=""   ><g transform="matrix(1 0 0 1 -1.06 76.9)"  ><path style="stroke: rgb(232,97,140); stroke-width: 3; stroke-dasharray: none; stroke-linecap: round; stroke-dashoffset: 0; stroke-linejoin: round; stroke-miterlimit: 4; fill: none; fill-rule: nonzero; opacity: 1;"  transform=" translate(-249.63, -266.14)" d="M 221.88 288.71 L 198.28 243.57999999999998 L 194.54 249.44 M 278.28 288.71 L 301.88 243.57999999999998 L 304.71999999999997 248.02999999999997" stroke-linecap="round" /></g><g transform="matrix(0.71 0.71 -0.71 0.71 158.59 -113.29)"  ><rect style="stroke: none; stroke-width: 1; stroke-dasharray: none; stroke-linecap: butt; stroke-dashoffset: 0; stroke-linejoin: miter; stroke-miterlimit: 4; fill: rgb(252,240,215); fill-rule: nonzero; opacity: 1;"  x="-48.53" y="-49.05" rx="13" ry="13" width="97.06" height="98.1" /></g><g transform="matrix(0.71 0.71 -0.71 0.71 158.59 -113.29)"  ><rect style="stroke: rgb(34,204,178); stroke-width: 1; stroke-dasharray: none; stroke-linecap: round; stroke-dashoffset: 0; stroke-linejoin: round; stroke-miterlimit: 4; fill: none; fill-rule: nonzero; opacity: 1;"  x="-57.16" y="-57.16" rx="13" ry="13" width="114.32" height="114.32" /></g><g transform="matrix(0.4 0.91 -0.91 0.4 -178.96 -28.72)"  ><rect style="stroke: none; stroke-width: 1; stroke-dasharray: none; stroke-linecap: butt; stroke-dashoffset: 0; stroke-linejoin: miter; stroke-miterlimit: 4; fill: rgb(249,219,220); fill-rule: nonzero; opacity: 1;"  x="-48.53" y="-49.05" rx="13" ry="13" width="97.06" height="98.1" /></g><g transform="matrix(0.4 0.91 -0.91 0.4 -178.96 -28.72)"  ><rect style="stroke: rgb(232,97,140); stroke-width: 1; stroke-dasharray: none; stroke-linecap: round; stroke-dashoffset: 0; stroke-linejoin: round; stroke-miterlimit: 4; fill: none; fill-rule: nonzero; opacity: 1;"  x="-57.16" y="-57.16" rx="13" ry="13" width="114.32" height="114.32" /></g><g transform="matrix(1 0 0 1 -0.8 -12.54)"  ><path style="stroke: rgb(27,161,141); stroke-width: 4; stroke-dasharray: none; stroke-linecap: round; stroke-dashoffset: 0; stroke-linejoin: round; stroke-miterlimit: 4; fill: none; fill-rule: nonzero; opacity: 1;"  transform=" translate(-249.89, -176.7)" d="M 111.9 68.87 L 198.28 68.87 L 198.28 284.53999999999996 L 111.9 284.53999999999996 z M 301.5 68.87 L 387.88 68.87 L 387.88 284.53999999999996 L 301.5 284.53999999999996 z" stroke-linecap="round" /></g><g transform="matrix(1 0 0 1 -5.83 -151.87)"  ><path style="stroke: none; stroke-width: 1; stroke-dasharray: none; stroke-linecap: butt; stroke-dashoffset: 0; stroke-linejoin: miter; stroke-miterlimit: 4; fill: rgb(248,206,219); fill-rule: nonzero; opacity: 1;"  transform=" translate(-244.86, -37.37)" d="M 244 21.5 C 244.53572805517692 24.107984124002503 244.93957442143778 26.741329437885444 245.20999999999998 29.389999999999958 C 245.51000000000002 32.03 245.69 34.67 245.86 37.31 C 246.03000000000003 39.95 246.08 42.6 246.06 45.25 C 246.07893784523844 47.92087405330556 245.96212050228436 50.59098474939851 245.71 53.24999999999994 C 245.17270951646444 50.646083431505076 244.77216094334432 48.01581446801642 244.51 45.36999999999999 C 244.20000000000002 42.73 244.02 40.089999999999996 243.86 37.449999999999996 C 243.70000000000002 34.809999999999995 243.64000000000001 32.16 243.65 29.509999999999994 C 243.66 26.859999999999992 243.72 24.169999999999995 244 21.499999999999993 Z" stroke-linecap="round" /></g><g transform="matrix(1 0 0 1 -2.91 -140.02)"  ><path style="stroke: none; stroke-width: 1; stroke-dasharray: none; stroke-linecap: butt; stroke-dashoffset: 0; stroke-linejoin: miter; stroke-miterlimit: 4; fill: rgb(248,206,219); fill-rule: nonzero; opacity: 1;"  transform=" translate(-247.78, -49.22)" d="M 260.71 36.51 C 258.09 37.059999999999995 255.45 37.419999999999995 252.82 37.71 C 250.19 38.00000000000001 247.54 38.2 244.9 38.36 C 242.26000000000002 38.519999999999996 239.61 38.589999999999996 236.96 38.57 C 234.28912594669444 38.58893784523843 231.61901525060145 38.472120502284376 228.96 38.220000000000006 C 231.57758207865052 37.679172711584535 234.22100440216943 37.27197886882026 236.88000000000002 37 C 239.51 36.7 242.15 36.52 244.79 36.36 C 247.42999999999998 36.199999999999996 250.07999999999998 36.13 252.79 36.15 C 255.43436130899352 36.13737006217451 258.0776890825164 36.25752132460735 260.71 36.509999999999984 Z M 264.92 40.94 C 265.40685246135735 42.6778690295863 265.7644947895478 44.449368412212074 265.99 46.23999999999998 C 266.23 48.01 266.40000000000003 49.78999999999999 266.5 51.56999999999999 C 266.59999999999997 53.349999999999994 266.62 55.129999999999995 266.57 56.919999999999995 C 266.5369583376741 58.72325000070521 266.3698305951946 60.52154450978445 266.07 62.3 C 265.5820365817557 60.56239852678041 265.22437746694266 58.79081599546349 265 56.99999999999999 C 264.76 55.23 264.58 53.46 264.49 51.68 C 264.40000000000003 49.9 264.38 48.11 264.43 46.33 C 264.4650161539329 44.52397069076726 264.6287647022035 42.722736659790606 264.92 40.94000000000001 Z" stroke-linecap="round" /></g><g transform="matrix(1 0 0 1 111.88 -65.06)"  ><path style="stroke: none; stroke-width: 1; stroke-dasharray: none; stroke-linecap: butt; stroke-dashoffset: 0; stroke-linejoin: miter; stroke-miterlimit: 4; fill: rgb(248,206,219); fill-rule: nonzero; opacity: 1;"  transform=" translate(-362.57, -124.19)" d="M 276.18 51.05 C 274.4419070653091 51.533618546427356 272.67040061141745 51.887919837205686 270.88 52.11 C 269.11 52.35 267.33 52.53 265.55 52.62 C 263.77000000000004 52.709999999999994 261.99 52.739999999999995 260.2 52.69 C 258.39699520176583 52.66033813609353 256.5986969055907 52.496552603542256 254.82 52.19999999999999 C 256.5578690295863 51.71314753864266 258.3293684122121 51.355505210452165 260.12 51.129999999999995 C 261.89 50.88999999999999 263.67 50.72 265.45 50.62 C 267.22999999999996 50.519999999999996 269.01 50.51 270.8 50.559999999999995 C 272.60298105149747 50.59010365014927 274.4012466384023 50.75388620360343 276.17999999999995 51.04999999999999 Z M 468.25 166.09 C 468.8 168.71 469.16 171.35 469.45 173.98 C 469.73999999999995 176.60999999999999 469.94 179.26 470.09999999999997 181.89999999999998 C 470.25999999999993 184.53999999999996 470.32 187.18999999999997 470.30999999999995 189.83999999999997 C 470.2999999999999 192.48999999999998 470.22999999999996 195.14999999999998 469.9599999999999 197.83999999999997 C 469.42353261536283 195.23214847004763 469.01968049201423 192.5987656161467 468.74999999999994 189.95 C 468.44999999999993 187.32 468.25999999999993 184.67999999999998 468.09999999999997 182.04 C 467.94 179.4 467.87999999999994 176.75 467.9 174.09 C 467.8813544998154 171.41913130984727 467.99817119415343 168.74903543926388 468.25 166.09 Z" stroke-linecap="round" /></g><g transform="matrix(1 0 0 1 221.36 4.57)"  ><path style="stroke: none; stroke-width: 1; stroke-dasharray: none; stroke-linecap: butt; stroke-dashoffset: 0; stroke-linejoin: miter; stroke-miterlimit: 4; fill: rgb(248,206,219); fill-rule: nonzero; opacity: 1;"  transform=" translate(-472.05, -193.82)" d="M 485 181.1 C 482.38 181.65 479.75 182.01 477.11 182.29999999999998 C 474.47 182.58999999999997 471.84000000000003 182.79 469.19 182.95 C 466.53999999999996 183.10999999999999 463.91 183.17999999999998 461.25 183.16 C 458.57913130984724 183.17864550018456 455.9090354392639 183.06182880584655 453.25 182.81 C 455.85785152995237 182.27353261536288 458.4912343838533 181.8696804920143 461.14 181.6 C 463.77 181.29999999999998 466.41999999999996 181.10999999999999 469.06 180.95 C 471.70000000000005 180.79 474.35 180.73 477 180.75 C 479.67087405330557 180.73106215476156 482.3409847493985 180.84787949771564 484.99999999999994 181.1 Z M 489.18 185.53 C 489.66361854642736 187.26809293469086 490.0179198372057 189.03959938858253 490.24 190.83 C 490.48 192.60000000000002 490.66 194.38000000000002 490.75 196.16000000000003 C 490.84 197.94000000000003 490.87 199.72000000000003 490.82 201.51000000000002 C 490.7903381360935 203.31300479823418 490.6265526035423 205.11130309440927 490.33 206.89000000000001 C 489.8421809967747 205.15236372568353 489.4845240722387 203.38079204340247 489.26 201.59 C 489.02 199.82 488.84999999999997 198.05 488.76 196.27 C 488.67 194.49 488.64 192.70000000000002 488.69 190.91 C 488.7205789638087 189.10704455804856 488.8843583230382 187.30881404242638 489.18 185.53 Z" stroke-linecap="round" /></g><g transform="matrix(1 0 0 1 7.03 40.5)"  ><path style="stroke: none; stroke-width: 1; stroke-dasharray: none; stroke-linecap: butt; stroke-dashoffset: 0; stroke-linejoin: miter; stroke-miterlimit: 4; fill: rgb(248,206,219); fill-rule: nonzero; opacity: 1;"  transform=" translate(-257.72, -229.75)" d="M 500.43 195.64 C 498.692138434314 196.1245869282527 496.92055949457654 196.47890271620022 495.13 196.7 C 493.36 196.94 491.59 197.11999999999998 489.81 197.20999999999998 C 488.03000000000003 197.29999999999998 486.24 197.32999999999998 484.46 197.27999999999997 C 482.6569952017658 197.2503381360935 480.8586969055907 197.08655260354223 479.08 196.78999999999996 C 480.8142516396802 196.3021976853002 482.5824981464693 195.94453723874742 484.37 195.71999999999997 C 486.14 195.47999999999996 487.92 195.29999999999998 489.7 195.20999999999998 C 491.47999999999996 195.11999999999998 493.26 195.09999999999997 495.05 195.14999999999998 C 496.85300479823417 195.17966186390646 498.6513030944093 195.34344739645772 500.43 195.64 Z M 37 253.38 C 35.35576563267472 254.6394670998849 33.632206042806935 255.79184705822675 31.840000000000003 256.83 C 30.07 257.83 28.27 258.83 26.439999999999998 259.77 C 24.609999999999996 260.71 22.74 261.53 20.839999999999996 262.32 C 18.937600457402326 263.1234469059721 16.98718747415948 263.80809529906253 15 264.37 C 16.640815207231608 263.11062293595074 18.36104275079463 261.95823749414643 20.149999999999988 260.92 C 21.919999999999998 259.92 23.72 258.92 25.56 257.98 C 27.4 257.04 29.259999999999998 256.22 31.159999999999997 255.43 C 33.062399542597674 254.62655309402788 35.012812525840516 253.9419047009375 37 253.38 Z" stroke-linecap="round" /></g><g transform="matrix(1 0 0 1 -232.39 80.63)"  ><path style="stroke: none; stroke-width: 1; stroke-dasharray: none; stroke-linecap: butt; stroke-dashoffset: 0; stroke-linejoin: miter; stroke-miterlimit: 4; fill: rgb(248,206,219); fill-rule: nonzero; opacity: 1;"  transform=" translate(-18.3, -269.88)" d="M 31.47 269.88 C 30.206868584053996 268.23403914721945 29.04793875215663 266.5106737487784 28.000000000000007 264.71999999999997 C 27 262.96 26 261.15999999999997 25.06 259.32 C 24.119999999999997 257.48 23.29 255.62 22.509999999999998 253.72 C 21.697363415953077 251.8177464951985 21.012510086130792 249.8634089442422 20.46 247.87 C 21.72867223907079 249.50370388984362 22.891066598961437 251.21723350657894 23.939999999999994 252.99999999999997 C 24.939999999999998 254.76 25.939999999999998 256.56 26.88 258.4 C 27.82 260.23999999999995 28.64 262.09999999999997 29.419999999999998 264 C 30.233895194449815 265.9120136804001 30.918762475835464 267.8764134923746 31.469999999999988 269.88 Z M 5.14 272.88 C 6.296211487296247 274.2641242317249 7.349051709727451 275.73141584330364 8.289999999999992 277.27 Q 9.719999999999999 279.54999999999995 10.94 281.91999999999996 Q 12.16 284.28999999999996 13.2 286.77 C 13.925247683797009 288.42659262880625 14.52689107590439 290.1345913697333 15.000000000000004 291.88 C 13.843788512703753 290.4958757682751 12.79094829027254 289.02858415669635 11.850000000000001 287.49 C 10.91 285.97 10.02 284.42 9.2 282.84000000000003 C 8.379999999999999 281.26000000000005 7.6 279.64000000000004 6.909999999999999 278.00000000000006 C 6.198944441734792 276.33761573697797 5.607441755198062 274.6266023160356 5.140000000000003 272.88000000000005 Z" stroke-linecap="round" /></g><g transform="matrix(1 0 0 1 -240.64 93.13)"  ><path style="stroke: none; stroke-width: 1; stroke-dasharray: none; stroke-linecap: butt; stroke-dashoffset: 0; stroke-linejoin: miter; stroke-miterlimit: 4; fill: rgb(248,206,219); fill-rule: nonzero; opacity: 1;"  transform=" translate(-10.05, -282.38)" d="M 19.55 277.47 C 18.167640702387054 278.62848764868824 16.70017521694875 279.68145263254485 15.160000000000004 280.62 C 13.64 281.56 12.1 282.45 10.51 283.27 C 8.92 284.09 7.31 284.84 5.66 285.53 C 4.002888154918814 286.2431423265764 2.2947982764361337 286.83144725536886 0.5500000000000025 287.28999999999996 C 1.934124231724904 286.13378851270375 3.401415843303618 285.08094829027254 4.9399999999999755 284.14 Q 7.219999999999999 282.71999999999997 9.59 281.49 Q 11.96 280.26000000000005 14.45 279.24 C 16.1040581207735 278.52512446248534 17.8087039728703 277.9335120785223 19.549999999999983 277.47 Z" stroke-linecap="round" /></g><g transform="matrix(1 0 0 1 -4.98 163.79)"  ><path style="stroke: rgb(232,97,140); stroke-width: 3; stroke-dasharray: none; stroke-linecap: round; stroke-dashoffset: 0; stroke-linejoin: round; stroke-miterlimit: 4; fill: none; fill-rule: nonzero; opacity: 1;"  transform=" translate(-245.71, -353.04)" d="M 261.29 338.09 L 261.64000000000004 366.12 L 266.17 366.06 M 236.17 339.69 L 236.89999999999998 367.71 L 225.24999999999997 367.98999999999995" stroke-linecap="round" /></g><g transform="matrix(1 0 0 1 -0.91 -120.38)"  ><path style="stroke: none; stroke-width: 1; stroke-dasharray: none; stroke-linecap: butt; stroke-dashoffset: 0; stroke-linejoin: miter; stroke-miterlimit: 4; fill: rgb(34,204,178); fill-rule: nonzero; opacity: 1;"  transform=" translate(-249.78, -68.87)" d="M 32.26 59.66 L 467.95 59.66 C 470.2149488232297 59.65999999999999 472.3871312393869 60.559747416720654 473.9886919113331 62.16130808866687 C 475.5902525832793 63.76286876061308 476.49 65.93505117677027 476.49 68.19999999999999 L 476.49 69.53999999999999 C 476.49 71.8049488232297 475.5902525832793 73.97713123938689 473.9886919113331 75.57869191133311 C 472.3871312393869 77.18025258327933 470.2149488232297 78.07999999999998 467.95 78.07999999999998 L 32.26 78.07999999999998 C 27.1789803015567 78.07999999999998 23.06 73.96101969844328 23.06 68.87999999999998 C 23.059999999999995 63.79898030155668 27.1789803015567 59.67999999999998 32.26 59.67999999999998 Z" stroke-linecap="round" /></g><g transform="matrix(1 0 0 1 -0.92 -120.38)"  ><path style="stroke: none; stroke-width: 1; stroke-dasharray: none; stroke-linecap: butt; stroke-dashoffset: 0; stroke-linejoin: miter; stroke-miterlimit: 4; fill: rgb(27,161,141); fill-rule: nonzero; opacity: 1;"  transform=" translate(-249.77, -68.86)" d="M 36.58 59.66 L 64.99 59.66 L 64.99 78.07 L 36.58 78.07 z M 434.55 59.66 L 462.96000000000004 59.66 L 462.96000000000004 78.07 L 434.55 78.07 z" stroke-linecap="round" /></g><g transform="matrix(1 0 0 1 -0.8 93.25)"  ><path style="stroke: none; stroke-width: 1; stroke-dasharray: none; stroke-linecap: butt; stroke-dashoffset: 0; stroke-linejoin: miter; stroke-miterlimit: 4; fill: rgb(34,204,178); fill-rule: nonzero; opacity: 1;"  transform=" translate(-249.89, -282.5)" d="M 103.62 274.56 L 206.57 274.56 L 206.57 290.44 L 103.62 290.44 z M 293.21 274.56 L 396.15999999999997 274.56 L 396.15999999999997 290.44 L 293.21 290.44 z" stroke-linecap="round" /></g><g transform="matrix(1 0 0 1 -1.84 88.5)"  ><path style="stroke: none; stroke-width: 1; stroke-dasharray: none; stroke-linecap: butt; stroke-dashoffset: 0; stroke-linejoin: miter; stroke-miterlimit: 4; fill: rgb(99,106,232); fill-rule: nonzero; opacity: 1;"  transform=" translate(-248.84, -277.75)" d="M 157.78 267.36 Q 157.97 260.55 157.98 248.21 C 158.05714225915793 240.8710219640879 157.38702155240725 233.543252035769 155.98000000000002 226.34000000000003 L 174.17999999999998 226.34 L 173.70999999999998 229.25 C 173.23 232.07 172.80999999999997 235.54 172.45999999999998 239.64 Q 171.45999999999998 251.22 171.45999999999998 264.45 L 171.45999999999998 267.22999999999996 C 175.9552271742564 267.0001819364924 180.3662732973083 265.92117219254584 184.45999999999998 264.04999999999995 L 184.45999999999998 278 L 181.74999999999997 277.2 C 178.44173023804103 276.26913360640333 175.05363835950118 275.6497689843382 171.62999999999994 275.34999999999997 Q 172.20999999999998 298.23999999999995 174.39999999999998 304.78999999999996 C 174.70999999999998 305.71999999999997 175.08999999999997 306.71 175.52999999999997 307.78999999999996 L 152 307.78999999999996 C 153.58535557742977 305.4108525087502 154.69886956139058 302.74928249830725 155.28 299.95 C 155.78 297.32 156.15 294.95 156.37 292.7 Q 157.17000000000002 284.37 157.56 274.7 L 119.34 274.7 Q 126.94 259.42 130.92000000000002 229.17999999999998 C 131.6083698901235 224.04817080784608 131.96910046622793 218.87769921701562 132 213.7 C 132 209.16 131.87 206.75 131.6 206.48999999999998 L 152.84 206.48999999999998 C 152.53 207.48999999999998 152.22 208.48999999999998 151.91 209.32999999999998 L 150.91 212.17999999999998 Q 149.79 215.48999999999998 148.66 219.58999999999997 L 140.51 251 Q 138.45 259 138 262.13 Q 137.55 265.26 139.82 266.37 C 141.35999999999999 267.12 143.76999999999998 267.45 147.03 267.37 Z M 351.67 267.36 Q 351.86 260.55 351.87 248.21 C 351.95216516650817 240.87082007806328 351.28199776182225 233.54253950782328 349.87 226.33999999999997 L 368.07 226.34 L 367.61 229.25 C 367.12 232.07 366.7 235.54 366.35 239.64 Q 365.35 251.22 365.35 264.45 L 365.35 267.22999999999996 C 369.8454030340398 267.00138267864315 374.2566715691316 265.9223185292899 378.35 264.04999999999995 L 378.35 278 L 375.64000000000004 277.2 C 372.3318757906983 276.2685051585792 368.943724558797 275.6491296863443 365.52000000000004 275.34999999999997 Q 366.12000000000006 298.23999999999995 368.3 304.78999999999996 C 368.61 305.71999999999997 368.98 306.71 369.42 307.78999999999996 L 345.92 307.78999999999996 C 347.49833763162775 305.40822764808024 348.6081478302065 302.74739830347556 349.19 299.95 C 349.7 297.32 350.06 294.95 350.28 292.7 Q 351.08 284.37 351.46999999999997 274.7 L 313.22999999999996 274.7 Q 320.84 259.42 324.80999999999995 229.17999999999998 C 325.51418364088846 224.06939529052525 325.8882921864513 218.91872227929446 325.92999999999995 213.76 C 325.92999999999995 209.22 325.79999999999995 206.81 325.53999999999996 206.54999999999998 L 346.78 206.54999999999998 C 346.46999999999997 207.54999999999998 346.15999999999997 208.54999999999998 345.84999999999997 209.39 L 344.84999999999997 212.23999999999998 Q 343.72999999999996 215.54999999999998 342.59999999999997 219.64999999999998 L 334.4 251 Q 332.4 259.07 331.85999999999996 262.18 Q 331.31999999999994 265.29 333.66999999999996 266.42 C 335.21999999999997 267.17 337.61999999999995 267.5 340.89 267.42 Z M 249.42 349 Q 233.94 349 225.42 331.8 Q 217.61999999999998 316.12 217.60999999999999 290.65000000000003 Q 217.60999999999999 258.22 234.82 248.57000000000005 C 239.3056802058513 246.15669965090078 244.3488539551642 244.97007053341537 249.43999999999997 245.13000000000005 Q 265.85 245.13000000000005 273.98 257.96000000000004 Q 281.27000000000004 269.61 281.26 290.65000000000003 Q 281.26 325.71000000000004 267.26 341.00000000000006 C 262.7697922115107 346.14780116467557 256.2505747153546 349.07121708223434 249.42 349.00000000000006 Z M 235.58999999999997 286.81 Q 235.58999999999997 342.38 249.42 342.39 Q 263.25 342.4 263.25 286.81 Q 263.25 260 256 254 C 254.14603574104294 252.5152894040587 251.82413185972922 251.7389581826729 249.45 251.81 Q 238.39999999999998 251.81 236.28 271.53 Q 235.59 278.11999999999995 235.59 286.84999999999997 Z" stroke-linecap="round" /></g><g transform="matrix(0 1 -1 0 -199.9 25.18)"  ><path style="stroke: none; stroke-width: 1; stroke-dasharray: none; stroke-linecap: butt; stroke-dashoffset: 0; stroke-linejoin: miter; stroke-miterlimit: 4; fill: rgb(34,204,178); fill-rule: nonzero; opacity: 1;"  transform=" translate(-50.78, -214.42)" d="M -103.3 205.22 L 214.06 205.22 L 214.06 223.63 L -103.3 223.63 C -108.3810196984433 223.63 -112.5 219.5110196984433 -112.5 214.43 C -112.50265404924565 211.98827613681183 -111.53454290334778 209.64565029068063 -109.80892047494373 207.91815218572395 C -108.0832980465397 206.1906540807673 -105.74172530560624 205.2199985575815 -103.30000000000001 205.22 Z" stroke-linecap="round" /></g><g transform="matrix(0 1 -1 0 198.07 25.16)"  ><path style="stroke: none; stroke-width: 1; stroke-dasharray: none; stroke-linecap: butt; stroke-dashoffset: 0; stroke-linejoin: miter; stroke-miterlimit: 4; fill: rgb(34,204,178); fill-rule: nonzero; opacity: 1;"  transform=" translate(-448.73, -214.42)" d="M 294 205.22 L 612 205.22 L 612 223.63 L 294 223.63 C 291.7350511767703 223.63 289.56286876061307 222.73025258327934 287.9613080886669 221.12869191133314 C 286.35974741672067 219.5271312393869 285.46 217.3549488232297 285.46 215.09 L 285.46 213.75 C 285.46551827784316 209.03739395183948 289.2873907209976 205.21999676915706 294 205.22 Z" stroke-linecap="round" /></g><g transform="matrix(1 0 0 1 -0.9 20.12)"  ><path style="stroke: none; stroke-width: 1; stroke-dasharray: none; stroke-linecap: butt; stroke-dashoffset: 0; stroke-linejoin: miter; stroke-miterlimit: 4; fill: rgb(27,161,141); fill-rule: nonzero; opacity: 1;"  transform=" translate(-249.79, -209.37)" d="M 41.58 93.61 C 44.43645177048248 92.16479418862372 47.571123472911324 91.35298584784235 50.76999999999998 91.23 C 53.992944129676815 91.04652854250284 57.19972214119581 91.80392573265574 60.00000000000001 93.41 C 57.02721670554728 92.50675889579027 53.92482967284266 92.10459761377301 50.81999999999999 92.22 C 47.703158542792295 92.39189496211456 44.60946744849943 92.85728788647248 41.579999999999956 93.61000000000001 Z M 41.58 101.82 C 44.407531902410184 100.32471820244432 47.51848401214703 99.44220276277089 50.71 99.22999999999999 C 53.925156482371364 98.9724668019092 57.14723277941305 99.63491736459486 60 101.13999999999999 C 57.00086572202863 100.332616039199 53.889147648749514 100.0251607246839 50.79000000000001 100.22999999999999 C 47.678202270527485 100.48013977770192 44.595545684322154 101.0123247909556 41.57999999999997 101.82 Z M 41.58 152 C 44.422184598982014 150.53122473526642 47.54502820690939 149.68573869294548 50.73999999999999 149.52 C 53.96042543990083 149.3034167352381 57.175116638036876 150.01856402121655 59.99999999999998 151.58 C 57.01606162465892 150.72293581546117 53.91036030814254 150.3680950774479 50.81 150.53 C 47.69458393554369 150.73431045176358 44.60475033650607 151.22640746049439 41.58000000000003 152 Z M 41.58 160.22 C 44.3931160713313 158.70311693509444 47.49326840374907 157.79351180019825 50.68 157.55 C 53.889769028607674 157.2375108894499 57.12221054641956 157.84446074526224 60 159.3 C 56.98352008400863 158.55624930067927 53.867508792029604 158.29967632322487 50.77 158.54000000000002 C 47.66339906403524 158.82993622580838 44.588256278250235 159.3920950810988 41.579999999999956 160.22000000000003 Z M 41.58 218.17 C 44.43577839093523 216.72162117384838 47.570423116278704 215.90640888945546 50.769999999999996 215.78 C 53.99637646901839 215.61440647584888 57.20180165215566 216.3853754798104 60 218 C 57.02721670554728 217.09675889579026 53.92482967284266 216.694597613773 50.81999999999999 216.81 C 47.703621247917425 216.96706484773676 44.60947204322904 217.42248074799394 41.579999999999956 218.17000000000002 Z M 41.58 226.38 C 44.407531902410184 224.88471820244433 47.51848401214703 224.00220276277088 50.71 223.79 C 53.917545110340974 223.5332445689306 57.13209191851908 224.19210529552592 59.980000000000004 225.69 C 56.97943399732189 224.8907953470191 53.868521114167336 224.5867973454079 50.77 224.79 C 47.66493038168663 225.04133871718867 44.58902136972048 225.57351448748528 41.57999999999997 226.38 Z M 41.58 284.73 C 44.39835206176909 283.2234881576066 47.502369894666714 282.3273776306559 50.68999999999999 282.1 C 53.90316005481773 281.81098622994523 57.132225822002965 282.44223216939497 59.99999999999999 283.92 C 56.99140964213067 283.14866935573264 53.87797630096868 282.8683928185131 50.779999999999994 283.09000000000003 C 47.67004174062943 283.357275094911 44.590750267981896 283.90619227046994 41.57999999999994 284.73 Z M 41.58 292.94 C 44.37514331438861 291.3914687089537 47.45915396374216 290.4349488497171 50.639999999999986 290.13 C 53.84255677545137 289.7606928597703 57.084581526567 290.2941029149752 60 291.67 C 56.96429697592397 291.00481978101743 53.843137466498206 290.81923732370024 50.749999999999986 291.12 C 47.64668005299933 291.46181674004356 44.57863682006409 292.07074135116045 41.58000000000003 292.94 Z M 41.58 350.87 C 44.41366412248382 349.39029078703106 47.52878636198245 348.52800859163375 50.719999999999985 348.34000000000003 C 53.934455488815566 348.1068247107557 57.148311923618124 348.8009621696763 59.98 350.34000000000003 C 56.98921925140318 349.50286586833556 53.88079600461543 349.1649937762934 50.780000000000015 349.34000000000003 C 47.67328541468003 349.569988548299 44.59393124169119 350.08209853576346 41.57999999999996 350.87 Z M 41.58 359.08 C 44.38700322228644 357.55758135592686 47.478289414258 356.63155729842 50.66 356.35999999999996 C 53.86542649698264 356.02283743326893 57.1011802481443 356.5909997621667 60 358 C 56.979256521650846 357.28273824298094 53.863244068677254 357.05317286183015 50.76999999999999 357.32 C 47.66107695508735 357.6366842234235 44.58594572423792 358.2256103350987 41.58000000000002 359.08 Z M 439.55 93.61 C 442.40734062058505 92.16715057981874 445.54149014762316 91.3554774705314 448.74 91.23 C 451.97289052316825 91.0418036901594 455.1906027406946 91.79932125324875 458 93.41000000000001 C 455.0272167055473 92.50675889579028 451.92482967284263 92.10459761377301 448.82 92.22000000000001 C 445.6932243986395 92.39137934175984 442.58952882717256 92.85676627210924 439.54999999999995 93.61000000000003 Z M 439.55 101.82 C 442.37853645948456 100.3272243980158 445.48894510597216 99.44486312809217 448.68 99.22999999999999 C 451.89183043917876 98.97438988671462 455.1101691210386 99.63678502489914 457.96 101.13999999999999 C 454.9608657220286 100.332616039199 451.84914764874947 100.0251607246839 448.75 100.22999999999999 C 445.6416421181207 100.48133874431456 442.5624132321887 101.01350982351367 439.54999999999995 101.82 Z M 439.55 152 C 442.3931865829013 150.53380443483965 445.515464552944 149.68847153465342 448.71000000000004 149.52 C 451.92598240605594 149.30401265523162 455.13639382268855 150.0155092394583 457.96000000000004 151.57000000000002 C 454.9728609592671 150.71183121224527 451.8636877697134 150.35697992430707 448.76000000000005 150.52 C 445.65116459123607 150.7303335608204 442.56821652619794 151.22574758212946 439.55000000000007 152 Z M 439.55 160.22 C 442.3671688769539 158.70425946499563 445.4703296451582 157.7947710729972 448.66 157.55 C 451.86314964949014 157.24136255584335 455.0881134689089 157.84821058637914 457.96000000000004 159.3 C 454.94352008400864 158.55624930067927 451.8275087920296 158.29967632322487 448.73 158.54000000000002 C 445.62696157087703 158.83193449226832 442.5553130735611 159.39406624341112 439.55 160.22000000000003 Z M 439.55 218.17 C 442.4066692542664 216.72397577323935 445.5407922394376 215.90889917535478 448.74 215.78 C 451.9763859030803 215.6091289845665 455.1928971249141 216.38025802479015 458 218 C 455.0272167055473 217.09675889579026 451.92482967284263 216.694597613773 448.82 216.81 C 445.6936890583704 216.96656326986366 442.5895373760143 217.42197279392025 439.55 218.17000000000002 Z M 439.55 226.38 C 442.37853645948456 224.8872243980158 445.48894510597216 224.00486312809215 448.68 223.79 C 451.89070194734217 223.53408603848658 455.10822363250344 224.19284586626748 457.96 225.69 C 454.95943399732187 224.8907953470191 451.84852111416734 224.5867973454079 448.75 224.79 C 445.6416421181207 225.04133874431457 442.5624132321887 225.5735098235137 439.54999999999995 226.38 Z M 439.55 284.73 C 442.3713872420821 283.2221429117712 445.47895212341353 282.325992074282 448.67 282.1 C 451.87652639652737 281.8148358976472 455.0981153970178 282.44597604629007 457.96000000000004 283.92 C 454.95140964213067 283.14866935573264 451.8379763009687 282.8683928185131 448.74 283.09000000000003 C 445.63348634046133 283.35847185627546 442.55762229233056 283.90737468967416 439.55 284.73 Z M 439.55 292.94 C 442.3493002282298 291.3927978843151 445.4362869629127 290.4364105938566 448.62 290.13 C 451.8159730257579 289.7644842592778 455.0505441700955 290.2978075528838 457.96 291.67 C 454.92429697592394 291.00481978101743 451.8031374664982 290.81923732370024 448.71 291.12 C 445.6102839045261 291.4638968221399 442.54573923534423 292.07279106863666 439.54999999999995 292.94 Z M 439.55 350.87 C 442.38770594424074 349.391478074358 445.50582345347044 348.5293100636093 448.7 348.34000000000003 C 451.9144554888156 348.1068247107557 455.1283119236181 348.8009621696763 457.96 350.34000000000003 C 454.965909746292 349.50230990860814 451.85410679889776 349.164437710194 448.75 349.34000000000003 C 445.64348212347164 349.57162711225806 442.56427545399606 350.0837125692469 439.55 350.87 Z M 439.55 359.08 C 442.3605954491983 357.55760158798836 445.455135043802 356.63162274339845 448.64 356.35999999999996 C 451.8520096082018 356.01957244695313 455.09507440035003 356.5878017481415 458 358 C 454.9759218544773 357.28235178273354 451.85655702586376 357.0527881373377 448.76 357.32 C 445.6444735659715 357.63644455940727 442.56268003884105 358.22536492941265 439.55 359.08 Z M 94.52 59.66 C 95.6699168768966 60.87683056929982 96.55819873956825 62.316459795009095 97.13 63.89 C 97.73573146025888 65.48633805688551 98.03430447122165 67.18277561917391 98.00999999999999 68.89 C 97.98184228520337 70.58399399694721 97.64288938559196 72.25842132102755 97.00999999999999 73.83 C 96.73362304404296 74.5959737877124 96.39585925807356 75.33838527766494 96 76.05 C 95.56 76.75 95.06 77.42 94.56 78.05 C 94.87 77.28 95.27 76.57 95.56 75.81 C 95.86317367194974 75.06206004554183 96.12359359209758 74.2974938697232 96.34 73.52 L 96.66 72.36999999999999 L 96.86 71.18999999999998 C 96.9323081823838 70.79677170554532 96.97907272340092 70.39927310689991 97 70 C 97.02836998556518 69.61719157280642 97.02836998556518 69.23280842719356 97 68.85 C 97.01883840908835 67.25847656094305 96.81005982498046 65.67243280102664 96.38 64.14 C 95.95659889963312 62.57242849210888 95.33136798656761 61.066495970316694 94.51999999999998 59.65999999999998 Z M 103.31 59.66 C 104.4534252315168 60.8799550167853 105.33787697231334 62.318889964312 105.91 63.88999999999999 C 106.51573146025888 65.48633805688551 106.81430447122165 67.18277561917391 106.78999999999999 68.89 C 106.76206877087628 70.5840185854635 106.42310760327118 72.25848675343276 105.78999999999999 73.83 C 105.48965565074114 74.6121219334249 105.12507722170332 75.36803684133815 104.69999999999999 76.09 C 104.25999999999999 76.79 103.75999999999999 77.46000000000001 103.26999999999998 78.09 C 103.56999999999998 77.32000000000001 103.97999999999998 76.61 104.26999999999998 75.85000000000001 C 104.57198642323081 75.10055352965708 104.83566034837455 74.33623291120244 105.05999999999999 73.56000000000002 L 105.36999999999999 72.41 L 105.57 71.22999999999999 C 105.64675758273863 70.8408230463997 105.69356143350853 70.44633344705333 105.71 70.04999999999998 C 105.75159716945439 69.6581193257444 105.76829735913864 69.26399484919595 105.75999999999999 68.86999999999998 C 105.78886120991669 67.27789508348847 105.57989167522052 65.69040071507092 105.13999999999999 64.15999999999998 C 104.72370728617521 62.58832837782086 104.10875023122543 61.076138898436156 103.30999999999997 59.65999999999997 Z M 154.18 59.66 C 155.3234252315168 60.8799550167853 156.20787697231336 62.318889964312 156.78 63.88999999999999 C 157.38573146025888 65.48633805688551 157.68430447122165 67.18277561917391 157.66 68.89 C 157.6320687708763 70.5840185854635 157.29310760327118 72.25848675343276 156.66 73.83 C 156.35965565074113 74.6121219334249 155.99507722170333 75.36803684133815 155.57 76.09 C 155.13 76.79 154.64 77.46000000000001 154.14 78.09 C 154.44 77.32000000000001 154.85 76.61 155.14 75.85000000000001 C 155.44642085634106 75.10221802531123 155.71017784252012 74.33765663499463 155.92999999999998 73.56 L 156.23999999999998 72.41 L 156.43999999999997 71.22999999999999 C 156.5167575827386 70.8408230463997 156.5635614335085 70.44633344705333 156.57999999999996 70.04999999999998 C 156.60492485351796 69.65706152788883 156.60492485351796 69.26293847211113 156.57999999999996 68.86999999999998 C 156.60886120991665 67.27789508348847 156.3998916752205 65.69040071507092 155.95999999999995 64.15999999999998 C 155.55954897498313 62.59069833271187 154.96143120285876 61.07860284138616 154.17999999999995 59.65999999999998 Z M 163 59.66 C 164.14991687689658 60.87683056929982 165.0381987395683 62.31645979500908 165.61 63.88999999999999 C 166.80078098433762 67.08837615657852 166.7687316654779 70.61380123114708 165.52 73.78999999999999 C 165.22308373197845 74.57188897005908 164.86184615886418 75.32781203972415 164.44 76.05000000000001 C 163.99 76.75000000000001 163.5 77.42000000000002 163 78.05000000000001 C 163.31 77.28000000000002 163.71 76.57000000000001 164 75.81000000000002 C 164.2987332938792 75.06041281605927 164.5590709396883 74.2960881892607 164.78 73.52000000000001 L 165.09 72.37 L 165.29 71.19 C 165.36675758273861 70.80082304639971 165.41356143350853 70.40633344705334 165.42999999999998 70.00999999999999 C 165.47491022908864 69.61832934413347 165.49495040206847 69.22420594219652 165.48999999999998 68.82999999999998 C 165.50883840908833 67.23847656094304 165.30005982498042 65.65243280102663 164.86999999999998 64.11999999999999 C 164.4331724426864 62.561837281901454 163.80505892421837 61.063769745876094 162.99999999999997 59.65999999999998 Z M 213.83 59.66 C 214.9799168768966 60.87683056929982 215.8681987395683 62.31645979500908 216.44000000000003 63.88999999999999 C 217.64415491044912 67.08601654032658 217.61206048263745 70.61640359961056 216.35000000000002 73.79 C 216.05308373197846 74.57188897005908 215.6918461588642 75.32781203972415 215.27 76.05000000000001 C 214.82000000000002 76.75000000000001 214.33 77.42000000000002 213.83 78.05000000000001 C 214.14000000000001 77.28000000000002 214.54000000000002 76.57000000000001 214.83 75.81000000000002 C 215.1287332938792 75.06041281605927 215.3890709396883 74.2960881892607 215.61 73.52000000000001 L 215.92000000000002 72.37 L 216.12 71.19 C 216.23955249068004 70.40871297434194 216.30637024034567 69.62026352828735 216.32 68.83 C 216.33883840908834 67.23847656094306 216.13005982498044 65.65243280102665 215.7 64.12 C 215.2674445011541 62.560352591454475 214.63911238414494 61.061763692063636 213.82999999999998 59.66 Z M 222.61 59.66 C 223.7599168768966 60.87683056929982 224.6481987395683 62.31645979500908 225.22000000000003 63.88999999999999 C 226.42415491044912 67.08601654032658 226.39206048263745 70.61640359961056 225.13000000000002 73.79 C 224.83722626517365 74.573655132801 224.47582260959257 75.32992574540587 224.05 76.05000000000001 C 223.61 76.75000000000001 223.11 77.42000000000002 222.61 78.05000000000001 C 222.92000000000002 77.28000000000002 223.32000000000002 76.57000000000001 223.61 75.81000000000002 C 223.91317367194975 75.06206004554184 224.17359359209757 74.29749386972321 224.39000000000001 73.52000000000001 L 224.71 72.37 L 224.91 71.19 C 224.97693506347633 70.79933698638685 225.02366387779216 70.40547983715348 225.04999999999998 70.00999999999999 C 225.07492485351798 69.61706152788884 225.07492485351798 69.22293847211114 225.04999999999998 68.82999999999998 C 225.07886120991668 67.23789508348848 224.86989167522052 65.65040071507093 224.42999999999998 64.11999999999999 C 224.01762052765483 62.56126382576607 223.40590694703835 61.062229446892744 222.60999999999999 59.65999999999999 Z M 273.49 59.66 C 274.6334252315168 60.8799550167853 275.5178769723134 62.31888996431199 276.09000000000003 63.88999999999999 C 276.6957314602589 65.48633805688551 276.99430447122165 67.18277561917391 276.97 68.89 C 276.94206877087635 70.5840185854635 276.6031076032712 72.25848675343276 275.97 73.83 C 275.66965565074116 74.6121219334249 275.30507722170336 75.36803684133814 274.88000000000005 76.09 C 274.44000000000005 76.79 273.94000000000005 77.46000000000001 273.45000000000005 78.09 C 273.75000000000006 77.32000000000001 274.16 76.61 274.45000000000005 75.85000000000001 C 274.7519864232309 75.10055352965708 275.01566034837464 74.33623291120244 275.24000000000007 73.56000000000002 L 275.55000000000007 72.41 L 275.75000000000006 71.22999999999999 C 275.8267575827387 70.8408230463997 275.8735614335086 70.44633344705333 275.89000000000004 70.04999999999998 C 275.93159716945445 69.6581193257444 275.9482973591387 69.26399484919595 275.94000000000005 68.86999999999998 C 275.9688612099167 67.27789508348847 275.7598916752206 65.69040071507092 275.32000000000005 64.15999999999998 C 274.9037072861753 62.58832837782086 274.2887502312255 61.07613889843617 273.49000000000007 59.65999999999998 Z M 282.27 59.66 C 283.4134252315168 60.8799550167853 284.29787697231336 62.31888996431199 284.87 63.88999999999999 C 285.4804573042604 65.48503443497736 285.77919142413754 67.18238738882461 285.75 68.89 C 285.7271386653901 70.58456498639305 285.38799085700003 72.25995515983978 284.75 73.83 C 284.4537777190462 74.61389726751334 284.08903280451517 75.37015736553172 283.66 76.09 C 283.22 76.79 282.73 77.46000000000001 282.23 78.09 C 282.54 77.32000000000001 282.94 76.61 283.23 75.85000000000001 C 283.5287332938792 75.10041281605925 283.7890709396883 74.33608818926068 284.01 73.56 L 284.32 72.41 L 284.52 71.22999999999999 C 284.61279594969704 70.82547324028788 284.6729890340555 70.41415383050516 284.7 69.99999999999999 C 284.7415971694544 69.6081193257444 284.7582973591386 69.21399484919596 284.75 68.81999999999998 C 284.7771352190206 67.2286706311366 284.5716316674191 65.64191369991896 284.14 64.10999999999999 C 283.70239751584455 62.55528431293545 283.0743023474497 61.06061934001727 282.27 59.65999999999998 Z M 333.14 59.66 C 334.28657169827835 60.87939668398551 335.1744048271148 62.31829865141017 335.75 63.89 C 336.9407809843376 67.08837615657852 336.9087316654779 70.61380123114708 335.66 73.79 C 335.36308373197846 74.57188897005908 335.0018461588642 75.32781203972415 334.58000000000004 76.05000000000001 C 334.13000000000005 76.75000000000001 333.64000000000004 77.42000000000002 333.14000000000004 78.05000000000001 C 333.45000000000005 77.28000000000002 333.85 76.57000000000001 334.14000000000004 75.81000000000002 C 334.43873329387924 75.06041281605926 334.69907093968834 74.29608818926069 334.92 73.52000000000001 L 335.23 72.37 L 335.43 71.19 C 335.55287201708353 70.40926401423565 335.616387297661 69.62033737127344 335.62 68.83 C 335.6471352190206 67.23867063113661 335.44163166741913 65.65191369991898 335.01 64.12 C 334.5731724426864 62.56183728190147 333.94505892421836 61.06376974587611 333.14 59.66 Z M 341.92 59.66 C 343.0699168768966 60.87683056929982 343.9581987395683 62.31645979500908 344.53000000000003 63.88999999999999 C 345.1357314602589 65.48633805688551 345.43430447122165 67.18277561917391 345.41 68.89 C 345.3818422852034 70.58399399694721 345.042889385592 72.25842132102755 344.41 73.83 C 344.11308373197846 74.61188897005907 343.7518461588642 75.36781203972414 343.33000000000004 76.09 C 342.89000000000004 76.79 342.39000000000004 77.46000000000001 341.89000000000004 78.09 C 342.20000000000005 77.32000000000001 342.6 76.61 342.89000000000004 75.85000000000001 C 343.19317367194975 75.10206004554183 343.4535935920976 74.3374938697232 343.67 73.56000000000002 L 343.99 72.41 L 344.19 71.22999999999999 C 344.2585275055618 70.83985208008811 344.3019500475919 70.44570900627626 344.32 70.04999999999998 C 344.3698814202966 69.65875615057443 344.38993924600953 69.26428557822076 344.38 68.86999999999998 C 344.39883840908834 67.27847656094303 344.19005982498044 65.69243280102663 343.76 64.15999999999998 C 343.3445556058389 62.58650448888756 342.7260241848369 61.07379177448052 341.92 59.65999999999997 Z M 392.79 59.66 C 393.93991687689663 60.87683056929982 394.8281987395683 62.31645979500908 395.40000000000003 63.88999999999999 C 396.60415491044915 67.08601654032658 396.5720604826375 70.61640359961056 395.31000000000006 73.79 C 395.0172262651737 74.573655132801 394.65582260959263 75.32992574540587 394.2300000000001 76.05000000000001 C 393.7900000000001 76.75000000000001 393.2900000000001 77.42000000000002 392.7900000000001 78.05000000000001 C 393.1000000000001 77.28000000000002 393.50000000000006 76.57000000000001 393.7900000000001 75.81000000000002 C 394.0931736719498 75.06206004554184 394.35359359209764 74.29749386972321 394.57000000000005 73.52000000000002 L 394.89000000000004 72.37 L 395.09000000000003 71.19 C 395.15852750556184 70.79985208008812 395.20195004759194 70.40570900627627 395.22 70.00999999999999 C 395.26988142029666 69.61875615057444 395.28993924600957 69.22428557822077 395.28000000000003 68.82999999999998 C 395.3037402833879 67.23818822509344 395.0948693331828 65.6514427807932 394.66 64.11999999999999 C 394.2318112384995 62.55884189160328 393.6032507609778 61.05970834628401 392.79 59.65999999999998 Z M 401.58 59.66 C 402.7234252315168 60.8799550167853 403.60787697231336 62.31888996431199 404.18 63.88999999999999 C 404.79045730426037 65.48503443497736 405.08919142413754 67.18238738882461 405.06 68.89 C 405.0320687708763 70.5840185854635 404.6931076032712 72.25848675343276 404.06 73.83 C 403.7673097754342 74.59745917498722 403.412812639579 75.33989657272178 403 76.05 C 402.56 76.75 402.07 77.42 401.57 78.05 C 401.87 77.28 402.28 76.57 402.57 75.81 C 402.8764208563411 75.06221802531122 403.1401778425202 74.29765663499462 403.36 73.52 L 403.67 72.36999999999999 L 403.87 71.18999999999998 C 403.94390979844565 70.7972724107577 403.9873724172181 70.3994222850711 404 70 C 404.0415971694544 69.60811932574441 404.05829735913863 69.21399484919597 404.05 68.82 C 404.0788612099167 67.22789508348849 403.8698916752206 65.64040071507094 403.43 64.11 C 403.0033867416148 62.55461148470796 402.3817888797388 61.05941662776299 401.58 59.66 Z" stroke-linecap="round" /></g><g transform="matrix(1 0 0 1 -94.64 133.9)"  ><path style="stroke: none; stroke-width: 1; stroke-dasharray: none; stroke-linecap: butt; stroke-dashoffset: 0; stroke-linejoin: miter; stroke-miterlimit: 4; fill: rgb(232,97,140); fill-rule: nonzero; opacity: 1;"  transform=" translate(-156.05, -323.15)" d="M 138.31 324 C 139.56633910400717 322.7107867368517 141.27105105488016 321.9551266073681 143.07 321.89 C 149.56 321.71 152.76 321.16999999999996 153.48999999999998 320.59 C 154.70999999999998 319.7 152.01999999999998 307.71 152.01999999999998 307.71 L 175.51 307.71 L 173.51 337.16999999999996 C 173.52808150703106 337.8701674940795 173.02239713268378 338.47441746681653 172.32999999999998 338.58 L 138.76999999999998 338.58 C 138.06983250592043 338.59808150703105 137.46558253318344 338.09239713268374 137.35999999999999 337.4 L 136.60999999999999 328.88 C 136.45013467037504 327.0847513549751 137.06931113893373 325.30735066875957 138.30999999999997 324 Z" stroke-linecap="round" /></g><g transform="matrix(1 0 0 1 -95.22 142.67)"  ><path style="stroke: none; stroke-width: 1; stroke-dasharray: none; stroke-linecap: butt; stroke-dashoffset: 0; stroke-linejoin: miter; stroke-miterlimit: 4; fill: rgb(34,204,178); fill-rule: nonzero; opacity: 1;"  transform=" translate(-155.47, -331.92)" d="M 173.94 329 L 173.75 331.61 L 137.17000000000002 334.83000000000004 L 137.00000000000003 332.20000000000005 Z" stroke-linecap="round" /></g><g transform="matrix(1 0 0 1 200.23 154.51)"  ><ellipse style="stroke: none; stroke-width: 1; stroke-dasharray: none; stroke-linecap: butt; stroke-dashoffset: 0; stroke-linejoin: miter; stroke-miterlimit: 4; fill: rgb(255,255,255); fill-rule: nonzero; opacity: 1;"  cx="0" cy="0" rx="19.68" ry="34.1" /></g><g transform="matrix(1 0 0 1 200.23 154.51)"  ><ellipse style="stroke: rgb(232,97,140); stroke-width: 1; stroke-dasharray: none; stroke-linecap: round; stroke-dashoffset: 0; stroke-linejoin: round; stroke-miterlimit: 4; fill: none; fill-rule: nonzero; opacity: 1;"  cx="0" cy="0" rx="19.68" ry="34.1" /></g><g transform="matrix(1 0 0 1 212.45 148.33)"  ><path style="stroke: none; stroke-width: 1; stroke-dasharray: none; stroke-linecap: butt; stroke-dashoffset: 0; stroke-linejoin: miter; stroke-miterlimit: 4; fill: rgb(232,97,140); fill-rule: nonzero; opacity: 1;"  transform=" translate(-463.14, -337.57)" d="M 467.8 358.76 C 470.6 352.28999999999996 468.49 348.33 468.49 343.76 C 468.49 334.13 465.27 323.23 459.49 316.39 C 457.93404675141886 321.28578375218416 457.105210918349 326.38346105069945 457.03000000000003 331.52 C 457.07000000000005 341.15 462.06 351.91999999999996 467.8 358.76 Z" stroke-linecap="round" /></g><g transform="matrix(1 0 0 1 230.51 142.34)"  ><ellipse style="stroke: none; stroke-width: 1; stroke-dasharray: none; stroke-linecap: butt; stroke-dashoffset: 0; stroke-linejoin: miter; stroke-miterlimit: 4; fill: rgb(255,255,255); fill-rule: nonzero; opacity: 1;"  cx="0" cy="0" rx="19.68" ry="34.1" /></g><g transform="matrix(1 0 0 1 190.12 145.19)"  ><path style="stroke: none; stroke-width: 1; stroke-dasharray: none; stroke-linecap: butt; stroke-dashoffset: 0; stroke-linejoin: miter; stroke-miterlimit: 4; fill: rgb(232,97,140); fill-rule: nonzero; opacity: 1;"  transform=" translate(-440.81, -334.43)" d="M 432.88 344.83 C 432.88 348.64 431.34 351.68 433.45 356.83 C 442.45 349.60999999999996 449.28 337.51 449.28 325.03999999999996 C 449.16464720536845 320.6466349229348 448.5268283187701 316.2826109619987 447.38 312.03999999999996 C 438.33 319.18999999999994 432.88 332.35999999999996 432.88 344.83 Z" stroke-linecap="round" /></g><g transform="matrix(1 0 0 1 175.4 133.83)"  ><ellipse style="stroke: none; stroke-width: 1; stroke-dasharray: none; stroke-linecap: butt; stroke-dashoffset: 0; stroke-linejoin: miter; stroke-miterlimit: 4; fill: rgb(255,255,255); fill-rule: nonzero; opacity: 1;"  cx="0" cy="0" rx="19.68" ry="34.1" /></g><g transform="matrix(1 0 0 1 200.23 163.05)"  ><path style="stroke: rgb(232,97,140); stroke-width: 1; stroke-dasharray: none; stroke-linecap: round; stroke-dashoffset: 0; stroke-linejoin: round; stroke-miterlimit: 4; fill: none; fill-rule: nonzero; opacity: 1;"  transform=" translate(-450.92, -352.29)" d="M 450.92 377.86 L 450.92 326.72 M 450.92 346.75 L 442.95 337.64 M 450.92 357.63 L 439.44 344.5 M 450.92 368.84 L 439.06 355.28 M 450.92 346.77 L 460.59000000000003 335.71999999999997 M 450.92 357.65 L 462.78000000000003 344.09 M 450.92 368.86 L 462.78000000000003 355.3" stroke-linecap="round" /></g><g transform="matrix(1 0 0 1 175.4 133.83)"  ><ellipse style="stroke: rgb(44,53,224); stroke-width: 1; stroke-dasharray: none; stroke-linecap: round; stroke-dashoffset: 0; stroke-linejoin: round; stroke-miterlimit: 4; fill: none; fill-rule: nonzero; opacity: 1;"  cx="0" cy="0" rx="19.68" ry="34.1" /></g><g transform="matrix(1 0 0 1 175.4 152.77)"  ><path style="stroke: rgb(44,53,224); stroke-width: 1; stroke-dasharray: none; stroke-linecap: round; stroke-dashoffset: 0; stroke-linejoin: round; stroke-miterlimit: 4; fill: none; fill-rule: nonzero; opacity: 1;"  transform=" translate(-426.09, -342.01)" d="M 426.09 306.04 L 426.09 377.99 M 426.09 326.07 L 416.44 315.04 M 426.09 336.95 L 414.22999999999996 323.39 M 426.09 348.16 L 414.22999999999996 334.6 M 426.09 326.09 L 435.75 315.03999999999996 M 426.09 336.97 L 437.95 323.41 M 426.09 348.18 L 437.95 334.62" stroke-linecap="round" /></g><g transform="matrix(1 0 0 1 230.51 142.34)"  ><ellipse style="stroke: rgb(34,204,178); stroke-width: 1; stroke-dasharray: none; stroke-linecap: round; stroke-dashoffset: 0; stroke-linejoin: round; stroke-miterlimit: 4; fill: none; fill-rule: nonzero; opacity: 1;"  cx="0" cy="0" rx="19.68" ry="34.1" /></g><g transform="matrix(1 0 0 1 230.51 157.02)"  ><path style="stroke: rgb(34,204,178); stroke-width: 1; stroke-dasharray: none; stroke-linecap: round; stroke-dashoffset: 0; stroke-linejoin: round; stroke-miterlimit: 4; fill: none; fill-rule: nonzero; opacity: 1;"  transform=" translate(-481.2, -346.27)" d="M 481.2 314.55 L 481.2 377.99 M 481.2 334.58 L 471.55 323.55 M 481.2 345.46 L 469.34 331.89 M 481.2 356.67 L 469.34 343.11 M 481.2 334.6 L 490.87 323.55 M 481.2 345.48 L 493.06 331.92 M 481.2 356.69 L 493.06 343.13" stroke-linecap="round" /></g><g transform="matrix(1 0 0 1 114.67 133.9)"  ><path style="stroke: none; stroke-width: 1; stroke-dasharray: none; stroke-linecap: butt; stroke-dashoffset: 0; stroke-linejoin: miter; stroke-miterlimit: 4; fill: rgb(232,97,140); fill-rule: nonzero; opacity: 1;"  transform=" translate(-365.36, -323.15)" d="M 383.1 324 C 381.84366089599285 322.7107867368517 380.13894894511986 321.9551266073681 378.34000000000003 321.89 C 371.86 321.71 368.65000000000003 321.16999999999996 367.92 320.59 C 366.7 319.7 369.39000000000004 307.71 369.39000000000004 307.71 L 345.9 307.71 L 347.9 337.16999999999996 C 347.8819184929689 337.8701674940795 348.38760286731616 338.47441746681653 349.08 338.58 L 382.65 338.58 C 383.3463996587488 338.59298733888346 383.9448913379564 338.08854435212277 384.04999999999995 337.4 L 384.79999999999995 328.88 C 384.9598653296249 327.0847513549751 384.3406888610662 325.30735066875957 383.09999999999997 324 Z" stroke-linecap="round" /></g><g transform="matrix(1 0 0 1 115.27 142.62)"  ><path style="stroke: none; stroke-width: 1; stroke-dasharray: none; stroke-linecap: butt; stroke-dashoffset: 0; stroke-linejoin: miter; stroke-miterlimit: 4; fill: rgb(34,204,178); fill-rule: nonzero; opacity: 1;"  transform=" translate(-365.96, -331.86)" d="M 384.46 332.2 L 384.23999999999995 334.78 L 347.66999999999996 331.55999999999995 L 347.46999999999997 328.94999999999993 Z" stroke-linecap="round" /></g><g transform="matrix(1 0 0 1 21.62 175.81)"  ><path style="stroke: none; stroke-width: 1; stroke-dasharray: none; stroke-linecap: butt; stroke-dashoffset: 0; stroke-linejoin: miter; stroke-miterlimit: 4; fill: rgb(99,106,232); fill-rule: nonzero; opacity: 1;"  transform=" translate(-272.31, -365.06)" d="M 289.66 363.42 C 288.4085257557417 362.1238104468909 286.7008511029284 361.3668370188581 284.90000000000003 361.31 C 278.41 361.13 275.21000000000004 360.59 274.48 360 C 274.3691424742865 359.91399526572985 274.2885778847336 359.7948997855213 274.25 359.66 C 272.79 355.36 269.25 352.12 264.71 352.12 L 263.08 352.12 C 260.34422296261687 352.12249352808624 257.7337644023536 353.2672791325016 255.8786926022537 355.27804784929356 C 254.02362080215383 357.28881656608553 253.09247521679293 359.98288335697833 253.30999999999997 362.71 L 254.42 376.59 C 254.4018716850688 377.28468950696384 254.90313092259618 377.88448688520174 255.58999999999997 377.98999999999995 L 289.15999999999997 377.98999999999995 C 289.8570844422504 377.999327171859 290.45634340920856 377.4978196675962 290.57 376.80999999999995 L 291.32 368.28999999999996 C 291.49018282460173 366.50378305943997 290.8857067984918 364.7304106213946 289.65999999999997 363.41999999999996 Z" stroke-linecap="round" /></g><g transform="matrix(1 0 0 1 21.73 182.05)"  ><path style="stroke: none; stroke-width: 1; stroke-dasharray: none; stroke-linecap: butt; stroke-dashoffset: 0; stroke-linejoin: miter; stroke-miterlimit: 4; fill: rgb(34,204,178); fill-rule: nonzero; opacity: 1;"  transform=" translate(-272.42, -371.29)" d="M 291 371.6 L 290.77 374.19 L 254 371 L 253.83 368.4 Z" stroke-linecap="round" /></g><g transform="matrix(1 0 0 1 -25.37 175.82)"  ><path style="stroke: none; stroke-width: 1; stroke-dasharray: none; stroke-linecap: butt; stroke-dashoffset: 0; stroke-linejoin: miter; stroke-miterlimit: 4; fill: rgb(99,106,232); fill-rule: nonzero; opacity: 1;"  transform=" translate(-225.32, -365.06)" d="M 208 363.42 C 209.25085593985153 362.12292625090976 210.95890896521564 361.3657850989101 212.76 361.31 C 219.23999999999998 361.13 222.45 360.59 223.17999999999998 360 C 223.2908575257135 359.9139952657298 223.3714221152663 359.7948997855213 223.40999999999997 359.66 C 224.86999999999998 355.36 228.40999999999997 352.12 232.94999999999996 352.12 L 234.56999999999996 352.12 C 237.30751702548264 352.11970466515726 239.9206379546494 353.26327636697766 241.77791449046862 355.2743764195672 C 243.63519102628783 357.2854764721567 244.56766192136445 359.98114990517655 244.34999999999997 362.71 L 243.23999999999995 376.59 C 243.2594038323759 377.31210025347565 242.71866057601017 377.9269776659561 242 378 L 208.43 378 C 207.7366878691848 378.00436682964136 207.14308195928757 377.5040418484422 207.03 376.82 L 206.28 368.3 C 206.12278705246308 366.5014107050735 206.7497717293066 364.72252394751746 208 363.42 Z" stroke-linecap="round" /></g><g transform="matrix(1 0 0 1 -25.51 182.03)"  ><path style="stroke: none; stroke-width: 1; stroke-dasharray: none; stroke-linecap: butt; stroke-dashoffset: 0; stroke-linejoin: miter; stroke-miterlimit: 4; fill: rgb(34,204,178); fill-rule: nonzero; opacity: 1;"  transform=" translate(-225.18, -371.27)" d="M 243.75 368.35 L 243.57 370.95000000000005 L 206.82 374.19000000000005 L 206.6 371.6000000000001 Z" stroke-linecap="round" /></g><g transform="matrix(1 0 0 1 -3.5 188.75)"  ><path style="stroke: rgb(86,93,109); stroke-width: 1; stroke-dasharray: none; stroke-linecap: round; stroke-dashoffset: 0; stroke-linejoin: round; stroke-miterlimit: 4; fill: none; fill-rule: nonzero; opacity: 1;"  transform=" translate(-247.19, -377.99)" d="M 1.78 377.99 L 492.6 377.99" stroke-linecap="round" /></g></g></g></svg>