<svg viewBox = "0 0 394.78 563" width="394.78" height="563" xmlns="http://www.w3.org/2000/svg"><g transform="matrix(1 0 0 1 196.79 281.4)" id="Layer_1"  ><path style="stroke: none; stroke-width: 1; stroke-dasharray: none; stroke-linecap: butt; stroke-dashoffset: 0; stroke-linejoin: miter; stroke-miterlimit: 4; fill: rgb(248,206,219); fill-opacity: 0.4; fill-rule: nonzero; opacity: 1;"  transform=" translate(-196.79, -281.4)" d="M 203.87 381.14 L 145.91 381.14 C 145.91 362.71999999999997 147.93 346.43 151.97 332.28 C 156.01 318.13 163.09 303.97999999999996 173.2 289.82 C 183.31 275.67 197.33999999999997 259.61 215.32 241.64 C 231.04 225.92 242.28 210.86999999999998 249.01999999999998 196.48999999999998 C 255.76 182.11999999999998 259.13 165.93999999999997 259.13 147.96999999999997 C 259.13 124.15999999999997 252.26999999999998 105.84999999999997 238.57 93.03999999999996 C 224.85999999999999 80.23999999999997 205.43 73.83999999999996 180.28 73.83999999999996 C 167.7 73.83999999999996 156.36 77.09999999999997 146.25 83.60999999999996 C 136.14 90.12999999999995 131.09 97.87999999999995 131.09 106.85999999999996 C 140.07 111.80999999999996 147.15 118.64999999999995 152.32 127.41999999999996 C 157.48 136.17999999999995 160.07 145.50999999999996 160.07 155.37999999999997 C 160.07 167.96999999999997 155.01999999999998 179.08999999999997 144.91 188.73999999999995 C 134.8 198.40999999999994 121.21 203.22999999999996 104.13999999999999 203.22999999999996 C 87.05999999999999 203.22999999999996 73.13999999999999 195.93999999999997 62.359999999999985 181.32999999999996 C 51.579999999999984 166.72999999999996 46.179999999999986 149.54999999999995 46.179999999999986 129.76999999999995 C 46.179999999999986 110.45999999999995 52.34999999999999 93.03999999999996 64.70999999999998 77.54999999999995 C 77.05999999999997 62.049999999999955 93.90999999999998 49.69999999999995 115.24999999999997 40.48999999999995 C 136.58999999999997 31.27999999999995 160.28999999999996 26.669999999999952 186.34999999999997 26.669999999999952 C 218.24999999999997 26.669999999999952 246.20999999999998 31.61999999999995 270.25 41.48999999999995 C 294.28 51.37999999999995 313.15 65.18999999999996 326.86 82.93999999999996 C 340.56 100.68999999999996 347.41 121.00999999999996 347.41 143.91999999999996 C 347.41 164.13999999999996 341.79 183.79999999999995 330.56 202.88999999999996 C 319.32 221.98999999999995 300 244.33999999999997 272.6 269.93999999999994 C 255.52000000000004 286.11999999999995 241.94000000000003 300.04999999999995 231.83 311.7199999999999 C 221.72000000000003 323.4099999999999 214.53 334.5299999999999 210.27 345.0799999999999 C 206 355.64 203.87 367.66 203.87 381.14 z M 123 483.57 C 123 466.95 127.72 453.81 137.15 444.15 C 146.59 434.5 159.39000000000001 429.65999999999997 175.56 429.65999999999997 C 191.74 429.65999999999997 204.64 434.60999999999996 214.31 444.47999999999996 C 223.97 454.36999999999995 228.8 467.39 228.8 483.56999999999994 C 228.8 499.74999999999994 224.08 512.55 214.65 521.9799999999999 C 205.21 531.4099999999999 191.96 536.1299999999999 174.89000000000001 536.1299999999999 C 158.71 536.1299999999999 146.02 531.6299999999999 136.81 522.6499999999999 C 127.61 513.67 123 500.65 123 483.57 z" stroke-linecap="round" /></g></svg>