<svg width="33" height="32" viewBox="0 0 33 32" fill="none" xmlns="http://www.w3.org/2000/svg">
<path fill-rule="evenodd" clip-rule="evenodd" d="M25.7402 25.5468C26.5269 24.3468 26.8202 23.7335 27.4202 22.3868C22.9935 20.7068 22.2869 14.4001 26.6602 11.9868C25.3269 10.3068 23.4469 9.3335 21.6735 9.3335C20.3935 9.3335 19.5135 9.66684 18.7269 9.97351C18.0602 10.2268 17.4602 10.4535 16.7135 10.4535C15.9135 10.4535 15.2069 10.2002 14.4602 9.93351C13.6469 9.64018 12.7935 9.3335 11.7269 9.3335C9.74019 9.3335 7.62019 10.5468 6.27353 12.6268C4.38019 15.5602 4.71353 21.0535 7.76686 25.7468C8.8602 27.4268 10.3269 29.3068 12.2335 29.3335C13.0335 29.3468 13.5535 29.1068 14.1269 28.8535C14.7802 28.5602 15.4869 28.2402 16.7269 28.2402C17.9669 28.2268 18.6602 28.5602 19.3135 28.8535C19.8735 29.1068 20.3802 29.3468 21.1669 29.3335C23.1002 29.3068 24.6469 27.2268 25.7402 25.5468Z" fill="#F9F8F7"/>
<path fill-rule="evenodd" clip-rule="evenodd" d="M21.394 2.6665C21.6073 4.13317 21.0073 5.58652 20.2207 6.59985C19.3807 7.69319 17.914 8.5465 16.5007 8.49316C16.2473 7.07983 16.9007 5.62649 17.7007 4.65316C18.594 3.58649 20.1007 2.75984 21.394 2.6665Z" fill="#F9F8F7"/>
</svg>
