<svg xmlns="http://www.w3.org/2000/svg" width="48" height="48" viewBox="0 0 48 48" fill="none">
  <path d="M24 46C17.8 46 12.5833 44.8417 8.35 42.525C4.11667 40.2083 2 37.3667 2 34C2 31.7 3.06667 29.5917 5.2 27.675C7.33333 25.7583 10.2667 24.3 14 23.3V27.4C11.5667 28.1667 9.625 29.15 8.175 30.35C6.725 31.55 6 32.7667 6 34C6 36.1333 7.8 38 11.4 39.6C15 41.2 19.2 42 24 42C28.8 42 33 41.2 36.6 39.6C40.2 38 42 36.1333 42 34C42 32.7667 41.275 31.55 39.825 30.35C38.375 29.15 36.4333 28.1667 34 27.4V23.3C37.7333 24.3 40.6667 25.7583 42.8 27.675C44.9333 29.5917 46 31.7 46 34C46 37.3667 43.8833 40.2083 39.65 42.525C35.4167 44.8417 30.2 46 24 46ZM18 38V16H8V12H40V16H30V38H26V28H22V38H18ZM24 10C22.9 10 21.9583 9.60833 21.175 8.825C20.3917 8.04167 20 7.1 20 6C20 4.9 20.3917 3.95833 21.175 3.175C21.9583 2.39167 22.9 2 24 2C25.1 2 26.0417 2.39167 26.825 3.175C27.6083 3.95833 28 4.9 28 6C28 7.1 27.6083 8.04167 26.825 8.825C26.0417 9.60833 25.1 10 24 10Z" fill="#E8EAED"/>
</svg>