<svg width="48" height="48" viewBox="0 0 48 48" fill="none" xmlns="http://www.w3.org/2000/svg">
<rect width="48" height="48" rx="8" fill="#286FD1" fill-opacity="0.2"/>
<path d="M37.7065 17.7C37.6136 17.793 37.5033 17.8668 37.3819 17.9171C37.2605 17.9674 37.1304 17.9933 36.999 17.9933C36.8676 17.9933 36.7374 17.9674 36.616 17.9171C36.4946 17.8668 36.3844 17.793 36.2915 17.7L33.999 15.4063L30.4115 19L34.7052 23.2938C34.8929 23.4814 34.9983 23.7359 34.9983 24.0013C34.9983 24.2666 34.8929 24.5211 34.7052 24.7088C34.5176 24.8964 34.2631 25.0018 33.9977 25.0018C33.7324 25.0018 33.4779 24.8964 33.2902 24.7088L32.499 23.9088L21.999 34.4088C21.8132 34.596 21.5922 34.7446 21.3487 34.8461C21.1052 34.9476 20.844 34.9999 20.5802 35H14.4065L11.699 37.7075C11.6017 37.8049 11.4855 37.8811 11.3574 37.9315C11.2293 37.9818 11.0923 38.0052 10.9548 38.0002C10.8172 37.9951 10.6823 37.9618 10.5582 37.9022C10.4342 37.8426 10.3238 37.758 10.234 37.6538C10.0704 37.4551 9.98742 37.2021 10.0015 36.9451C10.0157 36.6882 10.1258 36.4458 10.3102 36.2663L12.9915 33.5838V27.41C12.9927 26.881 13.2035 26.374 13.5777 26L15.4752 24.1025C15.5217 24.056 15.5768 24.0191 15.6375 23.994C15.6982 23.9688 15.7633 23.9559 15.829 23.9559C15.8947 23.9559 15.9598 23.9688 16.0205 23.994C16.0812 24.0191 16.1363 24.056 16.1827 24.1025L19.7865 27.7038C19.8794 27.7967 19.9897 27.8704 20.1111 27.9207C20.2325 27.9709 20.3626 27.9968 20.494 27.9968C20.6254 27.9968 20.7555 27.9709 20.8769 27.9207C20.9983 27.8704 21.1086 27.7967 21.2015 27.7038C21.2944 27.6109 21.3681 27.5006 21.4184 27.3792C21.4687 27.2578 21.4945 27.1277 21.4945 26.9963C21.4945 26.8649 21.4687 26.7348 21.4184 26.6134C21.3681 26.492 21.2944 26.3817 21.2015 26.2888L17.5965 22.6838C17.55 22.6373 17.5131 22.5822 17.488 22.5215C17.4628 22.4608 17.4498 22.3957 17.4498 22.33C17.4498 22.2643 17.4628 22.1992 17.488 22.1385C17.5131 22.0778 17.55 22.0227 17.5965 21.9763L18.9715 20.6013C19.0179 20.5548 19.0731 20.5179 19.1338 20.4927C19.1945 20.4676 19.2595 20.4546 19.3252 20.4546C19.3909 20.4546 19.456 20.4676 19.5167 20.4927C19.5774 20.5179 19.6325 20.5548 19.679 20.6013L23.284 24.2063C23.3769 24.2992 23.4872 24.3729 23.6086 24.4232C23.73 24.4734 23.8601 24.4993 23.9915 24.4993C24.1229 24.4993 24.253 24.4734 24.3744 24.4232C24.4958 24.3729 24.6061 24.2992 24.699 24.2063C24.7919 24.1134 24.8656 24.0031 24.9159 23.8817C24.9662 23.7603 24.992 23.6302 24.992 23.4988C24.992 23.3674 24.9662 23.2373 24.9159 23.1159C24.8656 22.9945 24.7919 22.8842 24.699 22.7913L21.0977 19.1825C21.0512 19.1361 21.0144 19.0809 20.9892 19.0202C20.964 18.9595 20.9511 18.8945 20.9511 18.8288C20.9511 18.7631 20.964 18.698 20.9892 18.6373C21.0144 18.5766 21.0512 18.5215 21.0977 18.475L24.0815 15.4925L23.2877 14.6988C23.193 14.604 23.1182 14.4912 23.0679 14.3671C23.0176 14.2429 22.9927 14.1098 22.9948 13.9759C22.9969 13.8419 23.0259 13.7097 23.0801 13.5872C23.1343 13.4646 23.2126 13.3542 23.3102 13.2625C23.508 13.0861 23.7663 12.993 24.0312 13.0025C24.296 13.0121 24.5469 13.1236 24.7315 13.3138L28.999 17.5788L32.5852 13.9913L30.2902 11.6975C30.1954 11.6029 30.1205 11.4901 30.0701 11.366C30.0197 11.2419 29.9947 11.1089 29.9967 10.9749C29.9987 10.8409 30.0276 10.7087 30.0817 10.5861C30.1357 10.4635 30.2139 10.3531 30.3115 10.2613C30.5095 10.0848 30.768 9.99161 31.033 10.0012C31.2981 10.0107 31.5492 10.1223 31.734 10.3125L37.7065 16.285C37.7995 16.3779 37.8732 16.4882 37.9235 16.6096C37.9739 16.731 37.9998 16.8611 37.9998 16.9925C37.9998 17.1239 37.9739 17.2541 37.9235 17.3755C37.8732 17.4969 37.7995 17.6071 37.7065 17.7Z" fill="#286FD1"/>
</svg>
